<svg xmlns="http://www.w3.org/2000/svg" xmlns:xlink="http://www.w3.org/1999/xlink" viewBox="0,0,256,256" width="48px" height="48px" fill-rule="nonzero"><g fill="#bebebe" fill-rule="nonzero" stroke="none" stroke-width="1" stroke-linecap="butt" stroke-linejoin="miter" stroke-miterlimit="10" stroke-dasharray="" stroke-dashoffset="0" font-family="none" font-weight="none" font-size="none" text-anchor="none" style="mix-blend-mode: normal"><g transform="scale(4,4)"><path d="M31.82031,12c-18.382,0 -19.82031,1.43931 -19.82031,19.82031v0.35938c0,18.381 1.43831,19.82031 19.82031,19.82031h0.35938c18.382,0 19.82031,-1.43931 19.82031,-19.82031v-0.17969c0,-18.548 -1.452,-20 -20,-20zM43.99414,18c1.105,-0.003 2.00286,0.88914 2.00586,1.99414c0.003,1.105 -0.88914,2.00286 -1.99414,2.00586c-1.105,0.003 -2.00286,-0.88914 -2.00586,-1.99414c-0.003,-1.105 0.88914,-2.00286 1.99414,-2.00586zM31.97656,22c5.522,-0.013 10.01044,4.45456 10.02344,9.97656c0.013,5.522 -4.45456,10.01044 -9.97656,10.02344c-5.522,0.013 -10.01044,-4.45456 -10.02344,-9.97656c-0.013,-5.522 4.45456,-10.01044 9.97656,-10.02344zM31.98633,26c-3.314,0.008 -5.99433,2.70163 -5.98633,6.01563c0.008,3.313 2.70067,5.99238 6.01367,5.98438c3.314,-0.008 5.99433,-2.70067 5.98633,-6.01367c-0.008,-3.314 -2.70067,-5.99433 -6.01367,-5.98633z"></path></g></g></svg>